<svg xmlns="http://www.w3.org/2000/svg" viewBox="0 0 512 512">
  <rect width="512" height="512" fill="#ea580c"/>
  <circle cx="256" cy="200" r="70" fill="white"/>
  <path d="M256 310c-70 0-130 50-130 110v40h260v-40c0-60-60-110-130-110z" fill="white"/>
  <path d="M166 200c0-50 40-90 90-90s90 40 90 90v40h-20v-40c0-40-30-70-70-70s-70 30-70 70v40h-20v-40z" fill="white"/>
  <rect x="146" y="180" width="40" height="70" rx="20" fill="white"/>
  <rect x="326" y="180" width="40" height="70" rx="20" fill="white"/>
  <path d="M346 250v30c0 30-20 50-50 50h-40" stroke="white" stroke-width="20" fill="none" stroke-linecap="round"/>
</svg>
